<svg width="123" height="33" viewBox="0 0 123 33" fill="none" xmlns="http://www.w3.org/2000/svg">
<path d="M34.364 24H38.126V14.716L41.602 24H44.638L48.092 14.738V24H51.854V8.556H47.432L43.142 19.248L38.808 8.556H34.364V24ZM59.9713 14.562C61.2253 14.562 62.2813 15.332 62.2813 16.674H57.5733C57.7933 15.31 58.7393 14.562 59.9713 14.562ZM65.8453 19.93H61.8413C61.5333 20.59 60.9393 21.118 59.8833 21.118C58.6733 21.118 57.6833 20.37 57.5513 18.764H66.0653C66.1093 18.39 66.1313 18.016 66.1313 17.664C66.1313 13.924 63.6013 11.548 60.0153 11.548C56.3633 11.548 53.8113 13.968 53.8113 17.862C53.8113 21.756 56.4073 24.176 60.0153 24.176C63.0733 24.176 65.2513 22.328 65.8453 19.93ZM68.71 19.732C68.71 22.922 70.492 24 73.044 24H74.958V20.81H73.616C72.78 20.81 72.472 20.502 72.472 19.776V14.848H74.936V11.724H72.472V8.732H68.71V11.724H67.214V14.848H68.71V19.732ZM76.3055 17.84C76.3055 21.712 78.7035 24.176 81.6955 24.176C83.5215 24.176 84.8195 23.34 85.5015 22.262V24H89.2635V11.724H85.5015V13.462C84.8415 12.384 83.5435 11.548 81.7175 11.548C78.7035 11.548 76.3055 13.968 76.3055 17.84ZM85.5015 17.862C85.5015 19.82 84.2475 20.898 82.8175 20.898C81.4095 20.898 80.1335 19.798 80.1335 17.84C80.1335 15.882 81.4095 14.826 82.8175 14.826C84.2475 14.826 85.5015 15.904 85.5015 17.862ZM97.7711 8.556H91.9851V24H97.7711C102.699 24 105.867 20.854 105.867 16.278C105.867 11.68 102.699 8.556 97.7711 8.556ZM95.7471 20.744V11.768H97.5291C100.367 11.768 102.039 13.44 102.039 16.278C102.039 19.116 100.367 20.744 97.5291 20.744H95.7471ZM107.969 24H111.731V11.724H107.969V24ZM109.861 10.448C111.181 10.448 112.083 9.546 112.083 8.424C112.083 7.28 111.181 6.378 109.861 6.378C108.519 6.378 107.617 7.28 107.617 8.424C107.617 9.546 108.519 10.448 109.861 10.448ZM115.052 19.732C115.052 22.922 116.834 24 119.386 24H121.3V20.81H119.958C119.122 20.81 118.814 20.502 118.814 19.776V14.848H121.278V11.724H118.814V8.732H115.052V11.724H113.556V14.848H115.052V19.732Z" fill="white"/>
<g filter="url(#filter0_i_112_24)">
<path d="M21.8864 23.8851C23.8672 21.6682 25.0714 18.7426 25.0714 15.5357C25.0714 8.61243 19.459 3 12.5357 3C5.61243 3 0 8.61243 0 15.5357C0 22.459 5.61243 28.0714 12.5357 28.0714C14.6911 28.0714 16.7195 27.5274 18.491 26.5693L23.2143 29L21.8864 23.8851Z" fill="url(#paint0_radial_112_24)"/>
</g>
<path d="M21.6627 23.6852L21.5557 23.805L21.596 23.9605L22.7555 28.4265L18.6282 26.3025L18.4875 26.2301L18.3482 26.3054C16.6195 27.2404 14.6401 27.7714 12.5357 27.7714C5.77811 27.7714 0.3 22.2933 0.3 15.5357C0.3 8.77811 5.77811 3.3 12.5357 3.3C19.2933 3.3 24.7714 8.77811 24.7714 15.5357C24.7714 18.666 23.5963 21.5212 21.6627 23.6852Z" stroke="url(#paint1_linear_112_24)" stroke-width="0.6"/>
<defs>
<filter id="filter0_i_112_24" x="0" y="3" width="25.0715" height="26" filterUnits="userSpaceOnUse" color-interpolation-filters="sRGB">
<feFlood flood-opacity="0" result="BackgroundImageFix"/>
<feBlend mode="normal" in="SourceGraphic" in2="BackgroundImageFix" result="shape"/>
<feColorMatrix in="SourceAlpha" type="matrix" values="0 0 0 0 0 0 0 0 0 0 0 0 0 0 0 0 0 0 127 0" result="hardAlpha"/>
<feOffset/>
<feGaussianBlur stdDeviation="2.5"/>
<feComposite in2="hardAlpha" operator="arithmetic" k2="-1" k3="1"/>
<feColorMatrix type="matrix" values="0 0 0 0 1 0 0 0 0 0.770833 0 0 0 0 0.827044 0 0 0 1 0"/>
<feBlend mode="normal" in2="shape" result="effect1_innerShadow_112_24"/>
</filter>
<radialGradient id="paint0_radial_112_24" cx="0" cy="0" r="1" gradientUnits="userSpaceOnUse" gradientTransform="translate(9.75 9.96429) rotate(52.3524) scale(20.5233 20.7117)">
<stop stop-color="#FFC6A8"/>
<stop offset="1" stop-color="#EA580C"/>
</radialGradient>
<linearGradient id="paint1_linear_112_24" x1="8" y1="5" x2="21" y2="26.5" gradientUnits="userSpaceOnUse">
<stop stop-color="#FFD1B9"/>
<stop offset="1" stop-color="#FACFCF" stop-opacity="0"/>
</linearGradient>
</defs>
</svg>
